<?xml version="1.0" ?><!DOCTYPE svg  PUBLIC '-//W3C//DTD SVG 1.1//EN'
        'http://www.w3.org/Graphics/SVG/1.1/DTD/svg11.dtd'>
<svg width="68" height="48" viewBox="0 0 68 48" fill="none" xmlns="http://www.w3.org/2000/svg"
     class="jsx-963594783 jsx-2654161745 jsx-3766321535 jsx-2390270387">
    <path d="M0.517578 23.9636C1.10163 22.7985 2.05636 22.4275 3.36089 22.4301C17.7267 22.4596 32.0926 22.4469 46.4585 22.4511C48.1108 22.4516 49.6978 22.1517 51.2406 21.5772C51.6857 21.4115 51.759 21.2448 51.5104 20.8115C49.3315 17.0143 50.555 12.5546 52.7628 9.51813C53.0449 9.13023 53.2656 9.30745 53.5345 9.46169C56.1933 10.9872 57.9804 13.1742 58.6741 16.1469C58.7986 16.6801 58.9492 16.7465 59.4784 16.6806C61.7386 16.3991 64.0166 16.3744 66.105 17.3961C68.1744 18.4086 68.0429 18.3597 67.0382 20.139C65.2263 23.3479 62.2351 24.7509 58.6088 24.854C57.6518 24.8811 57.2457 25.1583 56.8963 26.0161C54.8806 30.9653 52.1457 35.4636 48.1062 39.1076C43.8305 42.9647 38.7683 45.2697 33.1408 46.469C31.4167 46.8364 29.6757 47.0825 27.9192 47.2302C27.7928 47.2408 27.6566 47.2303 27.6027 47.3842C27.1357 47.3842 26.6687 47.3842 26.2017 47.3842C25.8904 47.2591 25.5791 47.2591 25.2678 47.3842C24.3857 47.3842 23.5036 47.3842 22.6215 47.3842C22.2583 47.2583 21.8951 47.2583 21.5319 47.3842C21.1168 47.3842 20.7017 47.3842 20.2866 47.3842C18.1741 47.2154 16.0788 46.9641 14.0245 46.408C11.3896 45.6948 8.9308 44.6576 6.90422 42.8078C5.13171 41.1899 3.83603 39.2268 2.841 37.0735C1.77266 34.7617 1.09193 32.3334 0.720514 29.8224C0.613468 29.0986 0.692934 28.3563 0.517609 27.6374C0.517609 27.4333 0.517609 27.2292 0.517609 27.0251C0.615524 26.9231 0.615524 26.821 0.517609 26.719C0.517609 26.4128 0.517609 26.1067 0.517609 25.8005C0.64569 25.4433 0.64569 25.0861 0.517609 24.729C0.517578 24.4738 0.517578 24.2187 0.517578 23.9636Z"
          fill="#DDE2EC" class="jsx-963594783 jsx-2654161745 jsx-3766321535 jsx-2390270387"></path>
    <path d="M0.517578 24.7295C0.758392 25.0867 0.764734 25.4439 0.517578 25.801C0.517578 25.4439 0.517578 25.0867 0.517578 24.7295Z"
          fill="#DDE2EC" class="jsx-963594783 jsx-2654161745 jsx-3766321535 jsx-2390270387"></path>
    <path d="M21.5302 47.3846C21.8934 47.1299 22.2566 47.1571 22.6198 47.3846C22.2566 47.3846 21.8934 47.3846 21.5302 47.3846Z"
          fill="#DDE2EC" class="jsx-963594783 jsx-2654161745 jsx-3766321535 jsx-2390270387"></path>
    <path d="M25.2667 47.3843C25.578 47.1615 25.8893 47.1411 26.2006 47.3843C25.8893 47.3843 25.578 47.3843 25.2667 47.3843Z"
          fill="#DDE2EC" class="jsx-963594783 jsx-2654161745 jsx-3766321535 jsx-2390270387"></path>
    <path d="M0.517578 26.7192C0.687231 26.8213 0.710728 26.9233 0.517578 27.0254C0.517578 26.9233 0.517578 26.8213 0.517578 26.7192Z"
          fill="#DDE2EC" class="jsx-963594783 jsx-2654161745 jsx-3766321535 jsx-2390270387"></path>
    <path d="M42.6294 21.2082C41.7497 21.2081 40.8697 21.1936 39.9905 21.2135C39.4477 21.2258 39.1584 21.0268 39.1602 20.468C39.165 18.8905 39.1655 17.313 39.1602 15.7356C39.1583 15.18 39.4532 14.968 39.9863 14.9695C41.7715 14.9749 43.5568 14.9776 45.342 14.9678C45.9379 14.9645 46.1614 15.2244 46.1518 15.8084C46.1268 17.3346 46.1225 18.8619 46.1533 20.3878C46.1665 21.0379 45.8847 21.2369 45.2682 21.2159C44.3895 21.186 43.5091 21.2083 42.6294 21.2082Z"
          fill="#DDE2EC" class="jsx-963594783 jsx-2654161745 jsx-3766321535 jsx-2390270387"></path>
    <path d="M34.3552 21.2083C33.4754 21.2083 32.5954 21.1953 31.7159 21.2131C31.1769 21.224 30.884 21.0311 30.8864 20.4675C30.8933 18.8899 30.8952 17.3122 30.8849 15.7346C30.8816 15.2218 31.1265 14.9759 31.6312 14.9749C33.4683 14.9711 35.3055 14.9713 37.1427 14.9753C37.6422 14.9763 37.8926 15.2028 37.8873 15.7277C37.8713 17.3052 37.8727 18.883 37.8863 20.4605C37.8912 21.0284 37.6139 21.2229 37.0721 21.2129C36.1667 21.1961 35.2608 21.2083 34.3552 21.2083Z"
          fill="#DDE2EC" class="jsx-963594783 jsx-2654161745 jsx-3766321535 jsx-2390270387"></path>
    <path d="M17.8932 21.2081C16.9876 21.208 16.0817 21.1961 15.1763 21.2124C14.6178 21.2224 14.3746 20.9802 14.3779 20.4349C14.3873 18.8827 14.3931 17.3303 14.3751 15.7782C14.3681 15.173 14.6716 14.9673 15.2347 14.9693C16.9943 14.9753 18.754 14.9781 20.5135 14.9678C21.1269 14.9642 21.3981 15.2011 21.3854 15.8358C21.3553 17.3366 21.3538 18.8388 21.3856 20.3395C21.3999 21.0192 21.1071 21.2402 20.4547 21.216C19.602 21.1844 18.7472 21.2083 17.8932 21.2081Z"
          fill="#DDE2EC" class="jsx-963594783 jsx-2654161745 jsx-3766321535 jsx-2390270387"></path>
    <path d="M26.1475 21.2088C25.2657 21.2088 24.3832 21.1905 23.5021 21.2154C22.9402 21.2313 22.6818 20.9973 22.6825 20.455C22.6844 18.899 22.6881 17.3431 22.6818 15.7872C22.6794 15.2103 22.9489 14.9622 23.5381 14.9669C25.3018 14.9808 27.0657 14.979 28.8294 14.9678C29.4107 14.9641 29.6801 15.1872 29.6722 15.7855C29.6517 17.3412 29.6551 18.8974 29.6705 20.4532C29.6761 21.014 29.429 21.2283 28.8709 21.2148C27.9636 21.1928 27.0554 21.2089 26.1475 21.2088Z"
          fill="#DDE2EC" class="jsx-963594783 jsx-2654161745 jsx-3766321535 jsx-2390270387"></path>
    <path d="M34.405 0.084467C35.2846 0.0844363 36.1648 0.102724 37.0437 0.0780279C37.6311 0.0615228 37.8946 0.275489 37.8865 0.87631C37.8656 2.42797 37.8659 3.98027 37.8866 5.53195C37.8942 6.10199 37.618 6.31128 37.0885 6.3111C35.2775 6.31048 33.4665 6.31113 31.6555 6.31036C31.1064 6.31013 30.8748 6.04345 30.8805 5.49955C30.8968 3.94779 30.8921 2.3957 30.8832 0.843807C30.8801 0.294422 31.1309 0.0661639 31.6887 0.0789192C32.5937 0.0996043 33.4995 0.0844824 34.405 0.084467Z"
          fill="#DDE2EC" class="jsx-963594783 jsx-2654161745 jsx-3766321535 jsx-2390270387"></path>
    <path d="M9.70553 21.2083C8.79779 21.2081 7.88982 21.1954 6.98244 21.2129C6.45377 21.2231 6.23063 21.0019 6.23446 20.4836C6.24611 18.9024 6.24951 17.321 6.23282 15.7399C6.22682 15.1721 6.50058 14.967 7.03924 14.969C8.82874 14.9755 10.6183 14.9775 12.4078 14.9683C12.9641 14.9654 13.2192 15.2218 13.2189 15.7548C13.2181 17.3106 13.2166 18.8663 13.2187 20.4221C13.2195 20.9984 12.9489 21.2389 12.3506 21.2168C11.47 21.1844 10.5873 21.2084 9.70553 21.2083Z"
          fill="#DDE2EC" class="jsx-963594783 jsx-2654161745 jsx-3766321535 jsx-2390270387"></path>
    <path d="M34.3748 7.55532C35.3083 7.55555 36.242 7.56379 37.1754 7.55217C37.6623 7.54611 37.886 7.7468 37.883 8.23605C37.8728 9.84257 37.8733 11.4492 37.8825 13.0558C37.8853 13.5463 37.6556 13.7374 37.1702 13.735C35.3291 13.7256 33.4878 13.723 31.6467 13.7368C31.1209 13.7408 30.883 13.5265 30.8849 13.0126C30.8906 11.4315 30.8908 9.8504 30.885 8.26932C30.8831 7.75132 31.1305 7.53997 31.652 7.55016C32.5593 7.56789 33.4671 7.55509 34.3748 7.55532Z"
          fill="#DDE2EC" class="jsx-963594783 jsx-2654161745 jsx-3766321535 jsx-2390270387"></path>
    <path d="M17.9016 13.7313C16.968 13.731 16.0343 13.7217 15.1009 13.7348C14.6102 13.7417 14.3816 13.5231 14.3818 13.0491C14.3827 11.4425 14.3828 9.83588 14.3818 8.2293C14.3815 7.74902 14.6254 7.54918 15.109 7.55155C16.9501 7.56055 18.7914 7.56206 20.6325 7.55033C21.1542 7.54701 21.3861 7.74747 21.3809 8.2754C21.3653 9.85635 21.3658 11.4376 21.3805 13.0186C21.3855 13.5506 21.142 13.7453 20.6243 13.736C19.717 13.7198 18.8092 13.7315 17.9016 13.7313Z"
          fill="#DDE2EC" class="jsx-963594783 jsx-2654161745 jsx-3766321535 jsx-2390270387"></path>
    <path d="M26.1631 7.55384C27.0954 7.554 28.0279 7.56436 28.96 7.54977C29.4509 7.5421 29.6697 7.74777 29.6674 8.23104C29.6597 9.83549 29.6595 11.44 29.6677 13.0444C29.6701 13.5224 29.4665 13.7369 28.9693 13.734C27.1048 13.723 25.24 13.7242 23.3754 13.7333C22.9153 13.7356 22.6952 13.5153 22.6928 13.0915C22.6839 11.4617 22.6848 9.83186 22.6913 8.20207C22.6932 7.72315 22.9663 7.53951 23.4439 7.54866C24.35 7.56603 25.2567 7.55369 26.1631 7.55384Z"
          fill="#DDE2EC" class="jsx-963594783 jsx-2654161745 jsx-3766321535 jsx-2390270387"></path>
</svg>