<svg xmlns="http://www.w3.org/2000/svg" width="48.54" height="63.999" viewBox="0 0 48.54 63.999">
  <g id="jupyter" transform="translate(-2097.314 -2679.709)">
    <path id="Path_1" data-name="Path 1" d="M7.545,3.641A3.837,3.837,0,0,1,7,5.781a3.754,3.754,0,0,1-5.777.828A3.824,3.824,0,0,1,1.546.735,3.747,3.747,0,0,1,6.325,1,3.818,3.818,0,0,1,7.544,3.639Z" transform="translate(2136.921 2679.709)" fill="#dde2ec"/>
    <g id="Group_1" data-name="Group 1">
      <path id="Path_2" data-name="Path 2" d="M23.382,9.132C13.333,9.132,4.557,5.451,0,0A24.968,24.968,0,0,0,9.051,12.127a24.628,24.628,0,0,0,14.337,4.608,24.634,24.634,0,0,0,14.337-4.608A24.965,24.965,0,0,0,46.773,0C42.206,5.451,33.431,9.132,23.382,9.132Z" transform="translate(2099.08 2718.97)" fill="#dde2ec"/>
      <path id="Path_3" data-name="Path 3" d="M23.392,7.6c10.049,0,18.826,3.683,23.382,9.132A24.968,24.968,0,0,0,37.723,4.61a24.6,24.6,0,0,0-28.672,0A24.97,24.97,0,0,0,0,16.735C4.566,11.3,13.343,7.6,23.392,7.6Z" transform="translate(2099.068 2685.047)" fill="#dde2ec"/>
    </g>
    <path id="Path_4" data-name="Path 4" d="M9.509,4.587a4.826,4.826,0,0,1-.686,2.7,4.744,4.744,0,0,1-4.794,2.25,4.693,4.693,0,0,1-2.49-1.208A4.821,4.821,0,0,1,1.955.92a4.726,4.726,0,0,1,6.02.344A4.813,4.813,0,0,1,9.509,4.588Z" transform="translate(2099.157 2734.115)" fill="#dde2ec"/>
    <path id="Path_5" data-name="Path 5" d="M2.912,5.627A2.766,2.766,0,0,1,1.342,5.22,2.823,2.823,0,0,1,2.131.077,2.772,2.772,0,0,1,5.044,1.155a2.829,2.829,0,0,1-.2,3.564,2.778,2.778,0,0,1-1.933.909Z" transform="translate(2097.314 2685.79)" fill="#dde2ec"/>
  </g>
</svg>
