<?xml version="1.0" ?>
<svg width="62" height="60" viewBox="0 0 62 60" fill="none" xmlns="http://www.w3.org/2000/svg"
     class="jsx-963594783 jsx-2654161745 jsx-3766321535 jsx-2390270387">
    <path d="M52.7807 38.6698C52.8652 38.4118 52.9612 38.3268 53.2339 38.4108C53.4132 38.4661 53.6185 38.5232 53.8081 38.3649C54.1399 38.0879 54.5319 38.094 54.9284 38.1757C55.7342 38.3419 56.508 38.6159 57.2808 38.8919C58.1516 39.2029 58.9761 39.6467 59.912 39.7703C60.6884 39.8729 61.5543 39.4177 61.85 38.7153C62.1489 38.0053 61.9045 37.1718 61.2502 36.6746C60.8072 36.3379 60.2844 36.2119 59.7512 36.1559C58.593 36.0341 57.4256 35.9996 56.2767 35.7901C55.5863 35.6642 54.8699 35.5847 54.4879 34.8545C54.4128 34.7109 54.2442 34.7074 54.1088 34.6871C53.7995 34.6408 53.7465 34.4718 53.7842 34.1854C54.0344 32.2892 54.015 30.3887 53.7558 28.4981C53.2948 25.1361 52.1587 22.0167 50.3027 19.1736C50.1538 18.9456 50.1979 18.8384 50.3792 18.6794C50.5489 18.5304 50.7808 18.417 50.7733 18.12C50.7638 17.7482 50.9495 17.4659 51.2256 17.2258C51.8404 16.691 52.5299 16.2657 53.2091 15.8237C53.9863 15.3179 54.8533 14.96 55.5555 14.3284C56.6261 13.3653 56.4207 11.7332 55.1543 11.2855C54.5323 11.0656 53.9564 11.1926 53.4253 11.5504C52.948 11.8721 52.5487 12.2817 52.1646 12.7104C51.3832 13.5825 50.5698 14.4228 49.6413 15.1419C49.4172 15.3154 49.1746 15.4448 48.8873 15.4099C48.5197 15.3652 48.2046 15.4566 47.9448 15.7177C47.7671 15.8963 47.6479 15.8162 47.5049 15.6649C47.0208 15.1524 46.5036 14.6743 45.9639 14.2214C42.3689 11.2043 38.2556 9.40858 33.5859 8.93095C33.3896 8.91087 33.3241 8.83682 33.3204 8.64188C33.316 8.41034 33.3573 8.15755 33.1369 7.97917C32.8027 7.70886 32.7027 7.33823 32.6967 6.92612C32.6824 5.9302 32.8029 4.94494 32.9491 3.96411C33.0654 3.1833 33.2159 2.40866 33.1219 1.61332C33.0246 0.789461 32.37 0.108947 31.5772 0.0113995C30.8162 -0.0822235 30.0705 0.408564 29.7821 1.19928C29.6056 1.68326 29.6012 2.18693 29.6688 2.68687C29.8351 3.9175 30.0695 5.13984 30.0896 6.38798C30.1121 6.95265 30.136 7.52516 29.6892 7.96351C29.5261 8.12359 29.4638 8.30167 29.4966 8.5092C29.5492 8.84231 29.3687 8.90704 29.0943 8.93179C26.6928 9.14841 24.3961 9.77508 22.1959 10.7561C19.5653 11.929 17.2451 13.5551 15.25 15.641C15.0696 15.8296 14.9412 15.8581 14.7535 15.6803C14.5555 15.4927 14.3313 15.4058 14.0427 15.4641C13.6898 15.5353 13.3962 15.364 13.1252 15.1537C12.2166 14.4485 11.4166 13.6286 10.652 12.7733C10.2526 12.3266 9.84055 11.8966 9.33986 11.5642C8.61355 11.0821 7.69952 11.1073 7.11204 11.6172C6.31088 12.3126 6.35624 13.5477 7.21459 14.3332C7.62167 14.7058 8.08105 15.0012 8.56384 15.2665C9.58827 15.8294 10.5762 16.4494 11.4865 17.1894C11.7586 17.4107 11.9411 17.6721 11.9924 18.023C12.0294 18.2761 12.1061 18.5114 12.3413 18.6529C12.6075 18.813 12.5816 18.9711 12.4205 19.224C10.0654 22.9217 8.88736 26.9743 8.84518 31.3605C8.83597 32.3176 8.90783 33.2715 9.02983 34.2217C9.04789 34.3624 9.17004 34.5942 8.92333 34.6408C8.47925 34.7246 8.19149 34.9935 7.93618 35.3369C7.79513 35.5266 7.57188 35.595 7.34915 35.6507C6.06142 35.9728 4.74519 36.066 3.42742 36.1513C2.89078 36.1861 2.36178 36.2798 1.87498 36.5181C1.1095 36.8928 0.686578 37.7238 0.861684 38.4656C1.04886 39.2586 1.75367 39.7996 2.6265 39.8055C3.35752 39.8104 4.0201 39.54 4.68088 39.2662C5.67061 38.8561 6.67971 38.5041 7.72141 38.2503C8.08513 38.1616 8.45198 38.0936 8.79403 38.2997C9.07338 38.468 9.35111 38.5472 9.66941 38.4356C9.90298 38.3537 9.98755 38.4722 10.0578 38.6913C10.3315 39.5446 10.6701 40.374 11.0594 41.1805C13.0012 45.2024 15.8655 48.3898 19.6529 50.7357C19.8713 50.8709 19.9716 50.9897 19.8231 51.2375C19.6715 51.4907 19.6235 51.7495 19.7501 52.0481C19.8762 52.3454 19.8132 52.6511 19.6741 52.9475C19.1801 54.0001 18.5753 54.986 17.9063 55.9327C17.5259 56.4709 17.1618 57.0176 16.9627 57.6521C16.5789 58.8755 17.3993 60.0583 18.5862 59.9977C19.3177 59.9604 19.8294 59.5706 20.1828 58.9475C20.4856 58.4137 20.6463 57.8268 20.8324 57.2463C21.1743 56.1794 21.482 55.0971 22.0103 54.1006C22.1563 53.8251 22.3189 53.5316 22.6451 53.4567C22.9752 53.381 23.1562 53.1822 23.2733 52.8924C23.3596 52.6787 23.4744 52.623 23.7113 52.7123C25.2633 53.2977 26.8651 53.6916 28.5075 53.9156C30.2853 54.158 32.0698 54.1762 33.851 53.9894C35.6772 53.7978 37.4593 53.3872 39.1807 52.7355C39.3882 52.657 39.4694 52.7221 39.5641 52.8958C39.6622 53.0754 39.7021 53.3135 39.9576 53.372C40.402 53.4738 40.6616 53.7794 40.8521 54.1774C41.3637 55.2468 41.7434 56.3639 42.0659 57.502C42.2132 58.0219 42.4031 58.5237 42.6733 58.9906C43.143 59.8024 44.0753 60.1729 44.869 59.8753C45.6562 59.5802 46.1089 58.7019 45.8969 57.7804C45.7421 57.1072 45.3552 56.5387 44.9599 55.9808C44.269 55.0057 43.6265 54.0005 43.1368 52.9046C43.012 52.6254 42.9225 52.3309 43.0626 52.0398C43.1907 51.7736 43.1582 51.5366 43.0216 51.299C42.8878 51.066 42.9582 50.9401 43.185 50.8011C45.6747 49.2754 47.7852 47.3298 49.5188 44.9732C50.9371 43.0453 52.0343 40.9479 52.7807 38.6698ZM33.9835 13.5936C37.732 14.1874 40.9942 15.7757 43.7672 18.3826C44.0204 18.6207 43.7891 18.6733 43.6669 18.7605C41.8543 20.0555 40.0406 21.3489 38.2223 22.6358C37.6202 23.062 37.0402 23.5211 36.4023 23.8951C36.1605 24.0369 35.9026 24.1163 35.6543 24.0956C34.8227 24.0941 34.1752 23.5108 34.1241 22.7073C34.0157 21.0022 33.9266 19.2959 33.829 17.5901C33.7593 16.3734 33.6967 15.1562 33.6128 13.9405C33.5913 13.6301 33.679 13.5454 33.9835 13.5936ZM29.8396 28.7911C29.9525 28.6469 30.0723 28.5839 30.2601 28.5866C31.0217 28.5975 31.7835 28.5947 32.5451 28.5883C32.7125 28.5869 32.8282 28.6285 32.9374 28.7701C33.3966 29.3651 33.8676 29.9509 34.3416 30.5341C34.464 30.6846 34.503 30.8189 34.4516 31.0208C34.2666 31.7483 34.1048 32.4819 33.9473 33.216C33.9113 33.3837 33.8449 33.4873 33.6866 33.5616C32.9975 33.8849 32.3121 34.2165 31.6299 34.5544C31.465 34.6361 31.3308 34.6319 31.1646 34.5484C30.4952 34.2124 29.8199 33.888 29.1417 33.5701C28.9903 33.4991 28.8889 33.414 28.8512 33.2454C28.682 32.4893 28.5069 31.7345 28.3347 30.9791C28.3241 30.9326 28.3196 30.8847 28.3215 30.8971C28.2852 30.7139 28.3694 30.6375 28.4351 30.555C28.9034 29.9672 29.3764 29.383 29.8396 28.7911ZM19.021 18.3308C21.4912 16.0181 24.3741 14.5065 27.6765 13.8039C28.0598 13.7223 28.4481 13.6644 28.8334 13.5922C29.115 13.5395 29.2817 13.6029 29.188 13.9394C29.027 16.7897 28.8707 19.643 28.702 22.4956C28.6481 23.4051 28.1641 23.9784 27.3686 24.1231C26.8884 24.2105 26.4799 24.0246 26.1024 23.7564C23.7512 22.0858 21.4037 20.41 19.0498 18.7432C18.8412 18.5956 18.826 18.5134 19.021 18.3308ZM14.2154 33.1231C13.5357 33.3285 13.5188 33.3295 13.4782 32.6177C13.2658 28.8899 14.0578 25.4011 15.9642 22.1817C15.9944 22.1308 16.0312 22.0839 16.0817 22.0108C17.7615 23.5202 19.4125 25.0032 21.063 26.4868C21.5955 26.9655 22.1248 27.4478 22.6592 27.9243C23.1817 28.39 23.5015 28.9429 23.3292 29.6645C23.1665 30.3456 22.6502 30.6701 22.0224 30.8526C19.4884 31.5891 16.9541 32.325 14.42 33.0612C14.3516 33.0811 14.2836 33.1025 14.2154 33.1231ZM25.0464 38.5383C23.9813 41.1297 22.908 43.7178 21.8511 46.3125C21.7353 46.5966 21.6489 46.605 21.4091 46.4404C18.3271 44.3239 16.0815 41.5355 14.6975 38.0501C14.5289 37.6255 14.5304 37.6138 14.965 37.5394C17.773 37.0586 20.5805 36.5741 23.3912 36.1099C24.4338 35.9377 25.2732 36.6274 25.2695 37.6731C25.239 37.926 25.1689 38.2403 25.0464 38.5383ZM36.8403 48.6774C35.0642 49.2204 33.2506 49.4977 31.3874 49.512C29.5399 49.4937 27.7259 49.2183 25.9566 48.6498C25.7548 48.585 25.6607 48.5439 25.7964 48.2996C27.199 45.774 28.5879 43.2406 29.983 40.7108C30.0982 40.5019 30.2234 40.2975 30.4098 40.1401C31.0595 39.5912 31.9988 39.6677 32.5526 40.3172C32.7549 40.5544 32.9079 40.8238 33.0578 41.0963C34.3692 43.4808 35.6795 45.8661 37.0015 48.2448C37.1405 48.4949 37.1357 48.5871 36.8403 48.6774ZM48.1639 38.015C46.7797 41.5598 44.5105 44.3893 41.3677 46.5169C41.1657 46.6536 41.1008 46.6129 41.0164 46.4069C39.9087 43.7018 38.7853 41.0032 37.6865 38.2945C37.2818 37.297 37.6728 36.4129 38.5881 36.1121C38.7761 36.0503 38.9629 36.0612 39.1568 36.0278C40.1404 36.1922 41.1244 36.3548 42.1076 36.5213C44.028 36.8464 45.9476 37.1762 47.8684 37.4985C48.3335 37.5766 48.3384 37.568 48.1639 38.015ZM49.3539 32.4488C49.3207 33.2939 49.3242 33.2944 48.5224 33.0627C45.944 32.3176 43.3656 31.5726 40.7874 30.8269C39.8803 30.5646 39.3826 29.972 39.4103 29.1877C39.4286 28.6718 39.6989 28.2901 40.0647 27.9611C42.0955 26.1344 44.1267 24.3081 46.1577 22.4815C46.3255 22.3305 46.4927 22.1788 46.6796 22.0099C47.2431 22.9092 47.696 23.8389 48.0786 24.8049C49.0514 27.2607 49.4576 29.8115 49.3539 32.4488Z"
          fill="#DDE2EC" class="jsx-963594783 jsx-2654161745 jsx-3766321535 jsx-2390270387"></path>
</svg>